<svg xmlns="http://www.w3.org/2000/svg" viewBox="0 0 257.6 80"><defs><style>.eb2bc972-cf4a-4d8d-bd28-d23dd55b7610{fill:#0fa34d;}.b9299123-1dcd-4882-afef-f43637a01e86{fill:#00609a;}</style></defs><title>color-logo</title><g id="e23559f9-98f4-4de2-b466-4534feb7e2fe" data-name="Layer 2"><g id="a7ab6ce6-dc56-4599-b6c4-2b1fbd6121ad" data-name="Layer 1"><path class="eb2bc972-cf4a-4d8d-bd28-d23dd55b7610" d="M69.7,68.8S59,83.7,32.6,79.1C3.6,73.9.5,49.8.5,49.8s-5.7-26,21.1-35.1C52.2,6.2,59.2,29.1,59.2,29.1s3.2,8.5-4.3,13.3c-6,4-11.4-1-11.4-1s5.1-.8,5.1-4.7-4.8-5.6-4.8-5.6C31.3,26.5,24,34.6,24,34.6s-6.2,5.1-4.9,16C21.5,65.9,39,70.8,39,70.8s17.7,5.1,30.7-2"/><path class="b9299123-1dcd-4882-afef-f43637a01e86" d="M15.4,11.2S26.1-3.8,52.5.9C81.5,6,84.6,30.2,84.6,30.2s5.6,26-21.1,35C32.8,73.8,25.8,50.9,25.8,50.9s-3.2-8.5,4.4-13.3c6-4,11.4,1,11.4,1s-5.1.8-5.1,4.6,4.8,5.7,4.8,5.7c12.5,4.6,19.8-3.5,19.8-3.5s6.2-5.2,4.9-16C63.6,14.1,46.1,9.1,46.1,9.1S28.4,4,15.4,11.2"/><path class="b9299123-1dcd-4882-afef-f43637a01e86" d="M127.5,52,113.4,15.4h-3.6L95.1,52h3.6l4.1-10.7h16.8L123.7,52Zm-9.1-13.8H104.1l6.8-17.4.4-1.1h0Zm30.5-12.9h-3.5l-8.1,21.3a8.3,8.3,0,0,0-.4,1.5h-.1l-8.4-22.8h-3.7l9.4,23.9c.6,1.4,1.6,3.4,4,3.4Zm22.6,11.9c0-6.7-3.7-12.5-11-12.5s-11.1,6.9-11.1,13.8,4.6,14.1,12.7,14.1a16.9,16.9,0,0,0,7.3-1.6l-.9-2.4a14.8,14.8,0,0,1-5.7,1.1c-5.3,0-9.7-3.2-9.8-10.1h18.4a20.9,20.9,0,0,0,.1-2.4m-3.6-.4H153c0-5.1,2.7-9.3,7.6-9.3s7.3,4.8,7.3,9.3m28,15.2V33.6c0-5.9-3.7-8.9-9.4-8.9a29.9,29.9,0,0,0-11.4,2.8s.3,2.3.3,3.4V52h3.3V30.8c0-.5-.1-1.6-.1-1.6a20.6,20.6,0,0,1,7.6-1.7c4.4,0,6.5,2.5,6.5,6.8V52Zm19.9-6.8c0-8.7-12.9-7.8-12.9-13.5,0-3.2,2.3-4.1,5.1-4.1a16.2,16.2,0,0,1,5.4,1.1l.8-2.7a20.1,20.1,0,0,0-6.1-1.3c-4.4,0-8.5,2.3-8.5,7.1,0,8,12.6,7,12.6,13.4,0,3.4-3,4.5-5.9,4.5a18.6,18.6,0,0,1-6.2-1.3l-.9,2.8a22.8,22.8,0,0,0,7.2,1.3c4.5,0,9.4-2.1,9.4-7.3m24.7-19.9h-3.4l-7.9,24.1h-.1L220,25.3h-3.7l9.9,25c.8,2.2,2.1,2.2,2.1,2.2-1.2,3.7-3.5,7.9-8,9.5l1.3,2.5c4.7-1.4,8.3-6.5,10-11.8Zm17.1,19.9c0-8.7-13-7.8-13-13.5,0-3.2,2.4-4.1,5.2-4.1a17.3,17.3,0,0,1,5.4,1.1L256,26a20.1,20.1,0,0,0-6.2-1.3c-4.4,0-8.4,2.3-8.4,7.1,0,8,12.5,7,12.5,13.4,0,3.4-2.9,4.5-5.8,4.5a18.6,18.6,0,0,1-6.2-1.3l-.9,2.8a21.8,21.8,0,0,0,7.2,1.3c4.5,0,9.4-2.1,9.4-7.3"/></g></g></svg>