<svg xmlns="http://www.w3.org/2000/svg" viewBox="0 0 205.7 63.9"><defs><style>.ba93666a-abfb-47a7-981f-50a23bb2d551{fill:#fff;}</style></defs><title>ftrlogo</title><g id="bca31043-ee66-49e4-ace0-b7dcde6664b0" data-name="Layer 2"><g id="a399144d-4ca7-4a63-b63c-0ee512545549" data-name="Layer 1"><path class="ba93666a-abfb-47a7-981f-50a23bb2d551" d="M55.7,55S47.1,66.9,26,63.1C2.9,59.1.4,39.8.4,39.8S-4.1,19,17.3,11.8c24.4-6.9,30,11.4,30,11.4s2.6,6.8-3.5,10.7-9.1-.8-9.1-.8,4.1-.7,4.1-3.8S35,24.8,35,24.8c-10-3.7-15.9,2.8-15.9,2.8s-4.9,4.1-3.9,12.8c2,12.2,15.9,16.2,15.9,16.2S45.3,60.7,55.7,55"/><path class="ba93666a-abfb-47a7-981f-50a23bb2d551" d="M12.3,8.9S20.8-3,41.9.7C65.1,4.8,67.6,24.1,67.6,24.1s4.5,20.8-16.9,28C26.2,58.9,20.6,40.7,20.6,40.7S18.1,33.9,24.1,30s9.1.8,9.1.8-4,.6-4,3.7S33,39,33,39c9.9,3.7,15.8-2.7,15.8-2.7s4.9-4.2,3.9-12.8C50.8,11.3,36.8,7.3,36.8,7.3S22.7,3.2,12.3,8.9"/><path class="ba93666a-abfb-47a7-981f-50a23bb2d551" d="M101.9,41.5,90.6,12.3H87.7L76,41.5h2.8L82.1,33H95.5l3.3,8.5Zm-7.3-11H83.2l5.3-13.9.4-.9h0ZM119,20.2h-2.9l-6.4,17a5.3,5.3,0,0,0-.3,1.2h-.2l-6.6-18.2h-3l7.5,19.1c.5,1.1,1.3,2.7,3.2,2.7Zm18,9.5c0-5.3-2.9-10-8.8-10s-8.9,5.5-8.9,11S123,42,129.4,42a13.1,13.1,0,0,0,5.9-1.3l-.7-1.9a12.9,12.9,0,0,1-4.6.9c-4.2,0-7.7-2.5-7.8-8h14.7a14.8,14.8,0,0,0,.1-2m-2.9-.3H122.2c0-4.1,2.1-7.4,6.1-7.4s5.8,3.8,5.8,7.4m22.4,12.1V26.8c0-4.7-3-7.1-7.5-7.1a23.5,23.5,0,0,0-9.1,2.3s.2,1.8.2,2.7V41.5h2.6V24.6c0-.4-.1-1.3-.1-1.3a17.5,17.5,0,0,1,6.1-1.3c3.5,0,5.2,2,5.2,5.4V41.5Zm15.9-5.4c0-7-10.4-6.2-10.4-10.8,0-2.5,1.9-3.3,4.1-3.3a10.4,10.4,0,0,1,4.3,1l.7-2.2a15.3,15.3,0,0,0-4.9-1c-3.5,0-6.8,1.7-6.8,5.6,0,6.4,10.1,5.6,10.1,10.7,0,2.7-2.4,3.6-4.7,3.6a14.4,14.4,0,0,1-5-1l-.7,2.2a19.1,19.1,0,0,0,5.8,1c3.6,0,7.5-1.6,7.5-5.8m19.7-15.9h-2.8l-6.2,19.2H183l-7.3-19.2h-3l7.9,20c.7,1.7,1.8,1.7,1.8,1.7-1,3-2.9,6.4-6.4,7.6l1,2c3.8-1.1,6.6-5.2,8-9.4Zm13.6,15.9c0-7-10.3-6.2-10.3-10.8,0-2.5,1.9-3.3,4.1-3.3a10.4,10.4,0,0,1,4.3,1l.6-2.2a14.7,14.7,0,0,0-4.9-1c-3.5,0-6.7,1.7-6.7,5.6,0,6.4,10,5.6,10,10.7,0,2.7-2.3,3.6-4.7,3.6a13.4,13.4,0,0,1-4.9-1l-.7,2.2a18.5,18.5,0,0,0,5.7,1c3.6,0,7.5-1.6,7.5-5.8"/></g></g></svg>