<svg xmlns="http://www.w3.org/2000/svg" viewBox="0 0 40.1 38.5"><defs><style>.b4ec84cc-574b-4b59-8120-28208149f4e3{fill:#005895;}</style></defs><title>icon4</title><g id="f5978075-3a35-4bb5-b748-239aa6abb20e" data-name="Layer 2"><g id="b976bdd6-9fa3-44ed-9b9f-fb6741cc4df3" data-name="Layer 1"><path class="b4ec84cc-574b-4b59-8120-28208149f4e3" d="M29.2,38.5h-.6a2.7,2.7,0,0,1-1.9-1.8c-.6-2.3-1.6-5.7-2.9-9.2h0A4,4,0,0,0,20,24.9a3.9,3.9,0,0,0-3.7,2.6,79.5,79.5,0,0,0-3,9.2,2.5,2.5,0,0,1-1.9,1.8,2.7,2.7,0,0,1-2.5-.9A23.1,23.1,0,0,1,3.6,22.1a3,3,0,0,0-.8-2.4A13.2,13.2,0,0,1,.4,14.5,11.7,11.7,0,0,1,4.7,2.1,11.6,11.6,0,0,1,11.4,0,11.4,11.4,0,0,1,20,3.9,11.4,11.4,0,0,1,28.7,0a11,11,0,0,1,6.6,2.1,11.7,11.7,0,0,1,4.4,12.4,13.3,13.3,0,0,1-2.5,5.2,3.8,3.8,0,0,0-.8,2.4,22.6,22.6,0,0,1-5.3,15.5A2.5,2.5,0,0,1,29.2,38.5ZM20,23.9a5,5,0,0,1,4.7,3.2h0a86.8,86.8,0,0,1,3,9.3,1.4,1.4,0,0,0,1.2,1.1,1.3,1.3,0,0,0,1.5-.5,22.3,22.3,0,0,0,5.1-14.9,4.1,4.1,0,0,1,1-3,12.4,12.4,0,0,0,2.2-4.9A10.7,10.7,0,0,0,34.8,2.9,10.3,10.3,0,0,0,28.7,1a10.3,10.3,0,0,0-8.3,4l-.4.4L19.6,5a10.2,10.2,0,0,0-8.2-4A10.3,10.3,0,0,0,5.3,2.9a10.7,10.7,0,0,0-4,11.4A12.8,12.8,0,0,0,3.6,19a5,5,0,0,1,1,3.1A22.3,22.3,0,0,0,9.7,37a1.3,1.3,0,0,0,1.5.5,1.5,1.5,0,0,0,1.2-1.1,86.8,86.8,0,0,1,3-9.3A4.7,4.7,0,0,1,20,23.9Z"/><path class="b4ec84cc-574b-4b59-8120-28208149f4e3" d="M6,23.4a21.3,21.3,0,0,0,4.8,12.7h.1A.1.1,0,0,0,11,36c.5-1.8,1.2-4.5,2.2-7.3C9.3,27.8,6,23.4,6,23.4Z"/><path class="b4ec84cc-574b-4b59-8120-28208149f4e3" d="M34,23.4a21,21,0,0,1-4.7,12.7h-.1c-.1,0-.1,0-.1-.1-.5-1.8-1.3-4.5-2.3-7.3C30.8,27.8,34,23.4,34,23.4Z"/></g></g></svg>