<svg xmlns="http://www.w3.org/2000/svg" viewBox="0 0 34.6 47.9"><defs><style>.a3aca699-72d8-47c2-a49b-42772bc95418{fill:#005895;}</style></defs><title>icon1</title><g id="be94f846-c895-439e-97cf-86fa3560f9fe" data-name="Layer 2"><g id="a67618bd-7345-4fa3-b3a2-5d95f6ea48db" data-name="Layer 1"><path class="a3aca699-72d8-47c2-a49b-42772bc95418" d="M10.9,10.3,9.6,6.9H7.7c-.3,0-.5-.2-.5-.6a.5.5,0,0,1,.5-.5h2.6l.6,1.6,2.1-5,1.3,3.4h1.9a.5.5,0,0,1,.5.5c0,.4-.2.6-.5.6H13.6L13,5.3Z"/><path class="a3aca699-72d8-47c2-a49b-42772bc95418" d="M20.7,16.3H3.2A2.3,2.3,0,0,1,.9,14V13a.6.6,0,0,1,.6-.6H22.4a.6.6,0,0,1,.5.6v1.1A2.2,2.2,0,0,1,20.7,16.3ZM2,13.5V14a1.2,1.2,0,0,0,1.2,1.2H20.7a1.1,1.1,0,0,0,1.1-1.1v-.6Z"/><path class="a3aca699-72d8-47c2-a49b-42772bc95418" d="M21,13.5H2.8a.5.5,0,0,1-.5-.5V2.1A2.2,2.2,0,0,1,4.4,0H19.5a2.2,2.2,0,0,1,2.1,2.1V13A.6.6,0,0,1,21,13.5ZM3.4,12.4H20.5V2.1a1.1,1.1,0,0,0-1-1H4.4a1.1,1.1,0,0,0-1,1Z"/><path class="a3aca699-72d8-47c2-a49b-42772bc95418" d="M21,23.4a.5.5,0,0,1-.5-.3.7.7,0,0,1,.3-.8l10.9-5.4A3.2,3.2,0,0,0,33.5,14V9.5a3,3,0,0,0-2.9-3H23.7a.5.5,0,0,1-.5-.5.6.6,0,0,1,.5-.6h6.9a4.1,4.1,0,0,1,4,4.1V14a4.2,4.2,0,0,1-2.4,3.9L21.3,23.3Z"/><path class="a3aca699-72d8-47c2-a49b-42772bc95418" d="M17.3,25.5H6.6a.9.9,0,0,1-.7-.3.9.9,0,0,1-.3-.7,6.3,6.3,0,0,1,6.3-5.8,6.2,6.2,0,0,1,6.3,5.8.6.6,0,0,1-.2.7A.9.9,0,0,1,17.3,25.5Zm-.1-.9ZM6.7,24.4H17.1a5.2,5.2,0,0,0-5.2-4.7A5.4,5.4,0,0,0,6.7,24.4Z"/><path class="a3aca699-72d8-47c2-a49b-42772bc95418" d="M16.6,47.9a.7.7,0,0,1-.6-.4.8.8,0,0,1,.5-.7l6.1-1.2-.8-3.9a3.8,3.8,0,0,0-1.3-2.2,2.3,2.3,0,0,0-1.2-.6h-.1l-3.7-1.1h-.4a2.1,2.1,0,0,1-.6-1l-.2-1.5a.6.6,0,1,1,1.1-.1l.2,1.5a.3.3,0,0,0,.1.2h.1l3.7,1.1a3.2,3.2,0,0,1,1.7.9,4.6,4.6,0,0,1,1.7,2.8l1,4.9-7.2,1.5Z"/><path class="a3aca699-72d8-47c2-a49b-42772bc95418" d="M6.6,47.8H6.5L0,46.4l1-4.9a4.6,4.6,0,0,1,1.7-2.8,3.2,3.2,0,0,1,1.7-.9l3.7-1.1h.1a.3.3,0,0,1,.1-.2V35.3A8.5,8.5,0,0,1,6.3,32a2.3,2.3,0,0,1-1.2-2.2,2,2,0,0,1,1.4-2.2c.2-.1.6.1.6.3a.6.6,0,0,1-.3.7,1.3,1.3,0,0,0-.7,1.2c0,.7.4,1.2.7,1.2h.4v.3a6.5,6.5,0,0,0,2,3.2l.3.2-.2,1.8a2.1,2.1,0,0,1-.6,1H8.4L4.6,38.8a3.7,3.7,0,0,0-1.2.7,3.4,3.4,0,0,0-1.3,2.2l-.8,3.9,5.4,1.1a.4.4,0,0,1,.4.6A.5.5,0,0,1,6.6,47.8Z"/><path class="a3aca699-72d8-47c2-a49b-42772bc95418" d="M6.6,28.6a.5.5,0,0,1-.5-.5,9,9,0,0,1,.3-3.3.5.5,0,0,1,.7-.3c.3,0,.4.4.4.6a7.3,7.3,0,0,0-.3,3,.6.6,0,0,1-.6.5Z"/><path class="a3aca699-72d8-47c2-a49b-42772bc95418" d="M17.3,25.5H6.6a.9.9,0,0,1-.7-.3.9.9,0,0,1-.3-.7,6.3,6.3,0,0,1,6.3-5.8,6.2,6.2,0,0,1,6.3,5.8.6.6,0,0,1-.2.7A.9.9,0,0,1,17.3,25.5ZM6.7,24.4H17.1a5.2,5.2,0,0,0-5.2-4.7A5.4,5.4,0,0,0,6.7,24.4Z"/><path class="a3aca699-72d8-47c2-a49b-42772bc95418" d="M17.3,47.8a.6.6,0,0,1-.6-.5.6.6,0,0,1,.5-.6l5.4-1.1-.8-3.9a3.8,3.8,0,0,0-1.3-2.2,3.7,3.7,0,0,0-1.2-.7l-3.8-1.1h-.4a2.1,2.1,0,0,1-.6-1l-.2-1.8.2-.2a6,6,0,0,0,2.1-3.2v-.3H17c.4,0,.7-.5.7-1.2a1.3,1.3,0,0,0-.6-1.2.7.7,0,0,1-.4-.7.6.6,0,0,1,.7-.3,2,2,0,0,1,1.4,2.2A2.2,2.2,0,0,1,17.5,32a7.3,7.3,0,0,1-2,3.3v1.2a.3.3,0,0,0,.1.2h.1l3.7,1.1a3.2,3.2,0,0,1,1.7.9,4.6,4.6,0,0,1,1.7,2.8l1,4.9-6.5,1.4Z"/><path class="a3aca699-72d8-47c2-a49b-42772bc95418" d="M17.3,28.6h-.1a.5.5,0,0,1-.5-.5,9.9,9.9,0,0,0-.3-3,.5.5,0,0,1,.4-.6.5.5,0,0,1,.7.3,12.3,12.3,0,0,1,.3,3.3A.5.5,0,0,1,17.3,28.6Z"/><path class="a3aca699-72d8-47c2-a49b-42772bc95418" d="M11.9,40.1a3.7,3.7,0,0,1-2.6-1L7.8,37.8a.6.6,0,0,1,0-.8.5.5,0,0,1,.7-.1L10,38.3a3.2,3.2,0,0,0,3.9,0l1.4-1.4a.6.6,0,0,1,.8.9l-1.5,1.3A3.9,3.9,0,0,1,11.9,40.1Z"/><path class="a3aca699-72d8-47c2-a49b-42772bc95418" d="M16.8,44.1a.6.6,0,0,1-.1-1.1l3.5-.6a.6.6,0,0,1,.7.4.8.8,0,0,1-.5.7l-3.5.6Z"/><path class="a3aca699-72d8-47c2-a49b-42772bc95418" d="M11.9,20.9a4.3,4.3,0,0,0-3.6,2.3h2.4A5.1,5.1,0,0,1,11.9,20.9Z"/></g></g></svg>