<svg xmlns="http://www.w3.org/2000/svg" viewBox="0 0 54.5 53.9"><defs><style>.b604d382-9e55-4a71-a034-73d0503085d3{fill:#005895;}</style></defs><title>icon3</title><g id="f35c81d9-df3f-457a-a30e-158a0d66fc84" data-name="Layer 2"><g id="b43a315e-bbee-4341-978a-ac2eaf9c2e87" data-name="Layer 1"><path class="b604d382-9e55-4a71-a034-73d0503085d3" d="M7.6,7h0A1.7,1.7,0,0,0,9.4,5.5V4.2L6.3,3.9V5.3A1.6,1.6,0,0,0,7.6,7Z"/><path class="b604d382-9e55-4a71-a034-73d0503085d3" d="M13.6,27.2C7.1,27.2,3,17.1.5,9.6-.3,7-.1,4.7,1.2,3.1A5.6,5.6,0,0,1,6,1.3,1.8,1.8,0,0,1,8,0,2.1,2.1,0,0,1,9.3.7a1.8,1.8,0,0,1,.4,1.4v.4c-.1.3-.4.6-.7.5s-.6-.3-.6-.7V2c0-.2,0-.4-.2-.5l-.4-.2a.7.7,0,0,0-.8.5v.9H6.4A4.5,4.5,0,0,0,2.1,3.9C1.1,5.1,1,7,1.7,9.2,7.3,26,12,26,13.6,26,19.8,26,24,13.3,25.4,9.2c.7-2.2.6-4.1-.4-5.3a4.5,4.5,0,0,0-4.3-1.3h-.6V1.8a.7.7,0,0,0-.8-.5l-.4.2a.8.8,0,0,0-.2.5v.3c0,.4-.2.7-.6.7s-.6-.2-.7-.5V2.1A1.8,1.8,0,0,1,17.8.7,2.1,2.1,0,0,1,19.1,0a2,2,0,0,1,2,1.3,5.6,5.6,0,0,1,4.8,1.8c1.3,1.6,1.6,3.9.7,6.5C21.4,25.4,16.6,27.2,13.6,27.2Z"/><path class="b604d382-9e55-4a71-a034-73d0503085d3" d="M19.5,7h0a1.7,1.7,0,0,1-1.8-1.5V4.2l3.2-.3V5.3A1.6,1.6,0,0,1,19.5,7Z"/><path class="b604d382-9e55-4a71-a034-73d0503085d3" d="M39.6,37.4a4.7,4.7,0,0,1-4.8-4.8,4.8,4.8,0,1,1,9.6,0A4.7,4.7,0,0,1,39.6,37.4Zm0-8.4a3.6,3.6,0,1,0,3.6,3.6A3.6,3.6,0,0,0,39.6,29Z"/><path class="b604d382-9e55-4a71-a034-73d0503085d3" d="M39.6,32.8a2.5,2.5,0,0,1-2.1-1.1,2.8,2.8,0,0,0-.1.9,2.2,2.2,0,1,0,4.4,0,2.8,2.8,0,0,0-.1-.9A2.5,2.5,0,0,1,39.6,32.8Z"/><path class="b604d382-9e55-4a71-a034-73d0503085d3" d="M6.9,49.6a6,6,0,0,1-4.4-1.9,5.2,5.2,0,0,1,3.3-8.9A5.7,5.7,0,0,1,11,41.5a.7.7,0,0,1-.2.9c-.3.1-.7.1-.8-.2a4.5,4.5,0,0,0-4.1-2.1,3.7,3.7,0,0,0-3.7,3.6,4.7,4.7,0,0,0,1.2,3.2,5.1,5.1,0,0,0,3.5,1.5,6,6,0,0,0,6-6V26.6a.7.7,0,0,1,.7-.6.6.6,0,0,1,.6.6V42.4A7.3,7.3,0,0,1,6.9,49.6Z"/><path class="b604d382-9e55-4a71-a034-73d0503085d3" d="M31,53.9H26.4c-7.1,0-12.5-5.4-12.7-5.6a.7.7,0,0,1,0-.9.6.6,0,0,1,.9,0c.1.1,5.2,5.2,11.8,5.3H31a8,8,0,0,0,8-8V36.8a.6.6,0,1,1,1.2,0v7.9A9.2,9.2,0,0,1,31,53.9Z"/><path class="b604d382-9e55-4a71-a034-73d0503085d3" d="M35.8,40.7a.5.5,0,0,1-.4-.2c-1.5-1.3-2.7-2.3-2.7-2.4A54.7,54.7,0,0,1,27.3,33a8.6,8.6,0,0,1-.7-1,9.2,9.2,0,0,1-1.4-2.8,8.4,8.4,0,0,1,.4-6.6,8.5,8.5,0,0,1,6.8-4.5,8,8,0,0,1,7.2,4.1,8,8,0,0,1,7.2-4.1,8.5,8.5,0,0,1,6.8,4.5,8.4,8.4,0,0,1,.4,6.6A9.2,9.2,0,0,1,52.6,32a8.6,8.6,0,0,1-.7,1,54.7,54.7,0,0,1-5.4,5.1c0,.1-1.3,1.1-2.7,2.4a.6.6,0,0,1-.8,0,.6.6,0,0,1,0-.9,31.1,31.1,0,0,1,2.7-2.4,51,51,0,0,0,5.2-5l.7-.9a13.4,13.4,0,0,0,1.2-2.4,7.3,7.3,0,0,0-.4-5.8,6.9,6.9,0,0,0-5.7-3.7c-4.5-.3-6.4,4.1-6.5,4.3L39.6,25,39,23.7c-.1-.2-2.1-4.6-6.5-4.3a7.1,7.1,0,0,0-6.1,9.5,13.4,13.4,0,0,0,1.2,2.4l.7.9a51,51,0,0,0,5.2,5,31.1,31.1,0,0,1,2.7,2.4.6.6,0,0,1,0,.9Z"/></g></g></svg>