<svg xmlns="http://www.w3.org/2000/svg" viewBox="0 0 51.8 50.2"><defs><style>.a265a4f3-da72-4fd5-8a5b-55171ba66181{fill:#005895;}</style></defs><title>icon2</title><g id="ab1eceae-c0d6-490e-888b-d40b217c18e0" data-name="Layer 2"><g id="e016c2ba-bd96-4504-b3b4-1022408e234e" data-name="Layer 1"><path class="a265a4f3-da72-4fd5-8a5b-55171ba66181" d="M51.8,42.5H0V35.8a3.2,3.2,0,0,1,3.2-3.2h.7a.6.6,0,0,1,.6.6.6.6,0,0,1-.6.6H3.2a2,2,0,0,0-2,2v5.5H50.6V35.8a2,2,0,0,0-2-2H33.1a.6.6,0,0,1-.6-.6.6.6,0,0,1,.6-.6H48.6a3.2,3.2,0,0,1,3.2,3.2Z"/><path class="a265a4f3-da72-4fd5-8a5b-55171ba66181" d="M3.4,50.2H0V41.3H5.8v6.6A2.3,2.3,0,0,1,3.4,50.2ZM1.2,49H3.4a1,1,0,0,0,1.1-1.1V42.5H1.2Z"/><path class="a265a4f3-da72-4fd5-8a5b-55171ba66181" d="M51.8,50.2H48.3A2.3,2.3,0,0,1,46,47.9V41.3h5.8Zm-4.6-7.7v5.4A1.1,1.1,0,0,0,48.3,49h2.3V42.5Z"/><path class="a265a4f3-da72-4fd5-8a5b-55171ba66181" d="M37.6,38.1h0l-5.2-.2a4.4,4.4,0,0,1-3.2-1.5,4.3,4.3,0,0,1-.9-2.6H22.2V26.4H35.9a2.8,2.8,0,0,1,2.8,2.8v1.9a2.7,2.7,0,0,1-2.8,2.7h0a.6.6,0,0,1-.6-.6.6.6,0,0,1,.6-.6h0a1.5,1.5,0,0,0,1.6-1.5V29.2a1.6,1.6,0,0,0-1.6-1.6H23.4v5h6.2v.7a2.9,2.9,0,0,0,.7,2.3,2.8,2.8,0,0,0,2.2,1.1l5.3.2a.5.5,0,0,1,.5.6A.5.5,0,0,1,37.6,38.1Z"/><path class="a265a4f3-da72-4fd5-8a5b-55171ba66181" d="M44.5,33.8a4.5,4.5,0,0,1-3.7-2,4.2,4.2,0,0,1-.5-3.3,4,4,0,0,1,1.9-2.7,4.7,4.7,0,0,1,3.3-.6,4.8,4.8,0,0,1,2.7,1.9,4.5,4.5,0,0,1-1.3,6.1A5.3,5.3,0,0,1,44.5,33.8Zm0-7.5a3.4,3.4,0,0,0-1.7.5,3.5,3.5,0,0,0-1.4,2,3.4,3.4,0,0,0,.5,2.4,3.1,3.1,0,0,0,5.3-3.4h0a3.5,3.5,0,0,0-2-1.4Z"/><path class="a265a4f3-da72-4fd5-8a5b-55171ba66181" d="M23.4,33.8H3.3V31.3A2.3,2.3,0,0,1,5.6,29H18.3a4.7,4.7,0,0,1,4.5-2.6h.6ZM4.5,32.6H22.2v-5a3.4,3.4,0,0,0-2.9,2.2l-.2.4H5.6a1.1,1.1,0,0,0-1.1,1.1Z"/><path class="a265a4f3-da72-4fd5-8a5b-55171ba66181" d="M28.8,9.3a4.7,4.7,0,0,1-4.5-5.7,5,5,0,0,1,2-2.9,4.8,4.8,0,0,1,6.5,1.4,5.6,5.6,0,0,1,.6,3.6,4.7,4.7,0,0,1-2.1,2.9A4.3,4.3,0,0,1,28.8,9.3Zm0-8.1a4.1,4.1,0,0,0-1.8.5h0a3.4,3.4,0,0,0-1.5,2.2,3.4,3.4,0,0,0,.4,2.6,3.4,3.4,0,0,0,4.8,1,3,3,0,0,0,1.5-2.1,3.4,3.4,0,0,0-.5-2.6A3.4,3.4,0,0,0,28.8,1.2Zm-2.1,0Z"/><path class="a265a4f3-da72-4fd5-8a5b-55171ba66181" d="M33.4,24.4a.6.6,0,0,1-.6-.6V13.5a1.6,1.6,0,0,0-1.6-1.6H26.5a1.7,1.7,0,0,0-1.7,1.6V23.8a.6.6,0,0,1-.6.6.6.6,0,0,1-.6-.6V13.5a2.9,2.9,0,0,1,2.9-2.8h4.7A2.8,2.8,0,0,1,34,13.5V23.8A.6.6,0,0,1,33.4,24.4Z"/><path class="a265a4f3-da72-4fd5-8a5b-55171ba66181" d="M36.8,24.4h-.2a.5.5,0,0,1-.3-.7l.9-2.5a2.6,2.6,0,0,0-.4-2.7l-4.2-5.7a.6.6,0,0,1,.2-.8.5.5,0,0,1,.8.1l4.2,5.6a4.2,4.2,0,0,1,.5,3.9L37.4,24A.7.7,0,0,1,36.8,24.4Z"/><path class="a265a4f3-da72-4fd5-8a5b-55171ba66181" d="M20.8,24.4a.7.7,0,0,1-.5-.4l-1-2.5a4.2,4.2,0,0,1,.6-3.9L24.1,12a.5.5,0,0,1,.8-.1.5.5,0,0,1,.1.8l-4.1,5.7a2.6,2.6,0,0,0-.4,2.7l.9,2.5a.7.7,0,0,1-.3.8Z"/><path class="a265a4f3-da72-4fd5-8a5b-55171ba66181" d="M32.7,29.4H25.2v1.4h6.5A3.8,3.8,0,0,1,32.7,29.4Z"/><polygon class="a265a4f3-da72-4fd5-8a5b-55171ba66181" points="26.8 13.9 26.8 19 26.8 20.7 28.8 22.3 30.8 20.7 30.8 19 30.8 13.9 26.8 13.9"/></g></g></svg>