<svg xmlns="http://www.w3.org/2000/svg" viewBox="0 0 63.1 54.4"><defs><style>.af289c24-696e-4fe6-9c0b-2877cc2ba060{fill:#005895;}</style></defs><title>icon5</title><g id="b171062e-8995-47c2-a397-10f480af62d0" data-name="Layer 2"><g id="a370fd4d-9bbe-4f94-be80-eb59fb42ea2a" data-name="Layer 1"><path class="af289c24-696e-4fe6-9c0b-2877cc2ba060" d="M47.3,18.1l-1.7-4.4H43.2a.8.8,0,0,1-.7-.7.8.8,0,0,1,.7-.8h3.4l.8,2.1,2.7-6.5,1.7,4.4h2.4a.8.8,0,0,1,.7.8.8.8,0,0,1-.7.7H50.9l-.8-2.1Z"/><path class="af289c24-696e-4fe6-9c0b-2877cc2ba060" d="M60.2,25.9h-23A2.9,2.9,0,0,1,34.3,23V21.6a.7.7,0,0,1,.7-.7H62.4a.8.8,0,0,1,.7.7V23A2.9,2.9,0,0,1,60.2,25.9ZM35.7,22.3V23a1.5,1.5,0,0,0,1.5,1.5h23A1.5,1.5,0,0,0,61.6,23v-.7Z"/><path class="af289c24-696e-4fe6-9c0b-2877cc2ba060" d="M60.6,22.3H36.8a.7.7,0,0,1-.7-.7V7.4a2.7,2.7,0,0,1,2.8-2.7H58.5a2.8,2.8,0,0,1,2.8,2.7V21.6A.7.7,0,0,1,60.6,22.3ZM37.5,20.9H59.9V7.4a1.3,1.3,0,0,0-1.4-1.3H38.9a1.3,1.3,0,0,0-1.4,1.3Z"/><path class="af289c24-696e-4fe6-9c0b-2877cc2ba060" d="M37.8,44.6a.9.9,0,0,1-.7-.6l-1-8.4a6.7,6.7,0,0,0-2.2-3.7,6.9,6.9,0,0,0-2.2-1.2l-6.4-1.8-.6-.3a2.1,2.1,0,0,1-.9-1.5l-.3-2.5c0-.4.2-.8.6-.8a.6.6,0,0,1,.8.6l.3,2.5a.9.9,0,0,0,.3.5h.2L32,29.3a7,7,0,0,1,2.8,1.5,7.5,7.5,0,0,1,2.7,4.6h0l1,8.4a.6.6,0,0,1-.6.8Z"/><path class="af289c24-696e-4fe6-9c0b-2877cc2ba060" d="M.7,44.6H.6c-.4,0-.6-.4-.6-.8l1-8.4a8.2,8.2,0,0,1,2.8-4.6,5.9,5.9,0,0,1,2.8-1.5l6.2-1.8H13a.5.5,0,0,0,.3-.5l.3-2.1A11.5,11.5,0,0,1,10,19.3a3.7,3.7,0,0,1-2.1-3.6,3.6,3.6,0,0,1,2.2-3.6.7.7,0,1,1,.4,1.4,2.2,2.2,0,0,0-1.2,2.2c0,1.2.6,2.2,1.4,2.2h.5v.5a9.7,9.7,0,0,0,3.5,5.4l.3.3-.4,2.9a1.9,1.9,0,0,1-.9,1.5l-.6.3L6.9,30.7a6,6,0,0,0-2.2,1.2,6.3,6.3,0,0,0-2.3,3.7L1.4,44A.7.7,0,0,1,.7,44.6Z"/><path class="af289c24-696e-4fe6-9c0b-2877cc2ba060" d="M10.3,13.5a.7.7,0,0,1-.7-.6,17.4,17.4,0,0,1,.6-5.6.7.7,0,0,1,.9-.4.8.8,0,0,1,.4.9,15.6,15.6,0,0,0-.5,5,.7.7,0,0,1-.7.7Z"/><path class="af289c24-696e-4fe6-9c0b-2877cc2ba060" d="M37.8,44.6a.9.9,0,0,1-.7-.6l-1-8.4a6.3,6.3,0,0,0-2.3-3.7,5.7,5.7,0,0,0-2.1-1.2l-6.4-1.8-.6-.3a2.1,2.1,0,0,1-.9-1.5l-.3-2.9.3-.3a10.2,10.2,0,0,0,3.5-5.4V18h.5c.7,0,1.3-1,1.3-2.2a2.3,2.3,0,0,0-1.1-2.2.7.7,0,0,1-.5-.9.7.7,0,0,1,.8-.5,3.7,3.7,0,0,1,2.3,3.6,3.6,3.6,0,0,1-2.2,3.6A12.1,12.1,0,0,1,25,24.8l.2,2.1a.9.9,0,0,0,.3.5h.2L32,29.3a7,7,0,0,1,2.8,1.5,7.5,7.5,0,0,1,2.7,4.6h0l1,8.4a.6.6,0,0,1-.6.8Z"/><path class="af289c24-696e-4fe6-9c0b-2877cc2ba060" d="M28.3,13.5h-.1a.7.7,0,0,1-.7-.7,15.6,15.6,0,0,0-.5-5,.7.7,0,0,1,.5-.9.7.7,0,0,1,.9.4,17.4,17.4,0,0,1,.6,5.6A.9.9,0,0,1,28.3,13.5Z"/><path class="af289c24-696e-4fe6-9c0b-2877cc2ba060" d="M19.3,32.8a6.3,6.3,0,0,1-4.4-1.7l-2.4-2.2a.7.7,0,1,1,.9-1l2.5,2.2a5.2,5.2,0,0,0,6.8,0l2.4-2.2a.7.7,0,0,1,1,1l-2.5,2.2A6,6,0,0,1,19.3,32.8Z"/><path class="af289c24-696e-4fe6-9c0b-2877cc2ba060" d="M43.2,54.4h-19A6.2,6.2,0,0,1,18,48.2a.7.7,0,1,1,1.4,0A4.8,4.8,0,0,0,24.2,53h19A4.9,4.9,0,0,0,48,48.2v-23a.7.7,0,1,1,1.4,0v23A6.2,6.2,0,0,1,43.2,54.4Z"/><path class="af289c24-696e-4fe6-9c0b-2877cc2ba060" d="M10.5,42.2a2.9,2.9,0,0,1-2.9-2.9,3,3,0,0,1,2.9-3,3.1,3.1,0,0,1,3,3A3,3,0,0,1,10.5,42.2Zm0-4.4A1.5,1.5,0,0,0,9,39.3a1.5,1.5,0,0,0,1.5,1.5A1.5,1.5,0,0,0,12,39.3,1.4,1.4,0,0,0,10.5,37.8Z"/><path class="af289c24-696e-4fe6-9c0b-2877cc2ba060" d="M10.5,39.7a.4.4,0,0,1-.4-.4.5.5,0,0,1,.4-.5.5.5,0,0,1,.5.5A.5.5,0,0,1,10.5,39.7Z"/><path class="af289c24-696e-4fe6-9c0b-2877cc2ba060" d="M18.7,39.7a.5.5,0,0,1-.5-.4.5.5,0,0,1,.5-.5.5.5,0,0,1,.4.5A.4.4,0,0,1,18.7,39.7Z"/><path class="af289c24-696e-4fe6-9c0b-2877cc2ba060" d="M26.8,39.7a.4.4,0,0,1-.4-.4.5.5,0,0,1,.4-.5.5.5,0,0,1,.5.5A.5.5,0,0,1,26.8,39.7Z"/><path class="af289c24-696e-4fe6-9c0b-2877cc2ba060" d="M18.7,42.2a2.9,2.9,0,0,1-2.9-2.9,2.9,2.9,0,1,1,5.8,0A2.9,2.9,0,0,1,18.7,42.2Zm0-4.4a1.5,1.5,0,0,0-1.5,1.5,1.5,1.5,0,0,0,3,0A1.5,1.5,0,0,0,18.7,37.8Z"/><path class="af289c24-696e-4fe6-9c0b-2877cc2ba060" d="M26.8,42.2a2.9,2.9,0,0,1-2.9-2.9,2.9,2.9,0,1,1,5.8,0A2.9,2.9,0,0,1,26.8,42.2Zm0-4.4a1.5,1.5,0,0,0-1.5,1.5,1.5,1.5,0,0,0,3,0A1.5,1.5,0,0,0,26.8,37.8Z"/><path class="af289c24-696e-4fe6-9c0b-2877cc2ba060" d="M18.7,48.9a8.6,8.6,0,0,1-8-5.2l-.8-1.9a.7.7,0,0,1,.4-1,.7.7,0,0,1,.9.4l.8,1.9a7.3,7.3,0,0,0,6.7,4.4,7.1,7.1,0,0,0,6.6-4.4l.9-1.9c.1-.4.5-.5.9-.4a.8.8,0,0,1,.4,1l-.8,1.9A8.6,8.6,0,0,1,18.7,48.9Z"/><path class="af289c24-696e-4fe6-9c0b-2877cc2ba060" d="M18.7,45.6a.8.8,0,0,1-.7-.8V41.5a.7.7,0,0,1,1.4,0v3.3A.8.8,0,0,1,18.7,45.6Z"/><path class="af289c24-696e-4fe6-9c0b-2877cc2ba060" d="M10.8,8.3a.1.1,0,0,1-.1-.1.6.6,0,0,1-.5-.8c0-.1,1.9-7.4,9.1-7.4s9.1,7.3,9.1,7.4a.6.6,0,0,1-.5.8.7.7,0,0,1-.9-.5c-.1-.2-1.7-6.3-7.7-6.3s-7.7,6.3-7.8,6.3A.7.7,0,0,1,10.8,8.3Z"/><path class="af289c24-696e-4fe6-9c0b-2877cc2ba060" d="M19.3,3.1c-4.8,0-6.1,5-6.1,5l-.2.6c1.3.5,3.4.5,6.4-1.2a8.8,8.8,0,0,1,5.4-.9A6.1,6.1,0,0,0,19.3,3.1Z"/></g></g></svg>